{"asset":{"version":"2.0","generator":"Unity 2021.3.6f1 glTFast 5.0.4"},"nodes":[{"name":"Cube.001","mesh":0,"translation":[0.582,0,0],"rotation":[8.14603354E-08,0,0,1],"scale":[100,100,100]},{"name":"Eyes.001_Sphere.001","mesh":1,"rotation":[8.14603354E-08,0,0,1],"scale":[100,100,100]},{"name":"mixamorig:LeftToe_End","translation":[2.493217E-10,0.06669959,-9.10452061E-11]},{"name":"mixamorig:LeftToeBase","children":[2],"translation":[-7.661205E-10,0.171025172,-3.2927463E-09],"rotation":[0.2584725,-0.017992653,0.004815094,0.965839]},{"name":"mixamorig:LeftFoot","children":[3],"translation":[2.63470135E-10,0.4190934,1.33572919E-09],"rotation":[0.500601232,-0.0441624969,0.0255826358,0.8641722]},{"name":"mixamorig:LeftLeg","children":[4],"translation":[3.93898636E-10,0.4207768,5.019178E-10],"rotation":[-0.0102885412,-5.48489E-05,0.00533070648,0.9999329]},{"name":"mixamorig:LeftUpLeg","children":[5],"translation":[0.0876249745,-0.0499156937,0.00209591747],"rotation":[0.000184197314,0.0135077005,-0.9998158,0.0136339553]},{"name":"mixamorig:RightToe_End","translation":[3.91477233E-11,0.07066512,-6.932294E-11]},{"name":"mixamorig:RightToeBase","children":[7],"translation":[3.42015471E-10,0.1787811,-3.2876013E-09],"rotation":[0.246422246,0.018309759,-0.004656381,0.968978465]},{"name":"mixamorig:RightFoot","children":[8],"translation":[-1.27649358E-09,0.419226855,2.49564425E-10],"rotation":[0.5151754,0.041255977,-0.02483732,0.855730951]},{"name":"mixamorig:RightLeg","children":[9],"translation":[-6.64957145E-10,0.42092666,9.489092E-10],"rotation":[-0.007949401,4.23565652E-05,-0.005328018,0.9999542]},{"name":"mixamorig:RightUpLeg","children":[10],"translation":[-0.0876249745,-0.0499156937,0.00714877],"rotation":[-0.000258822925,0.0189869646,-0.999726832,-0.0136278858]},{"name":"mixamorig:LeftHandIndex4","translation":[-1.24196913E-05,0.0248401668,-2.68380845E-10]},{"name":"mixamorig:LeftHandIndex3","children":[12],"translation":[-8.706385E-06,0.0284487959,4.34025926E-10],"rotation":[0.0332771875,1.01021759E-19,3.03408484E-18,0.999446154]},{"name":"mixamorig:LeftHandIndex2","children":[13],"translation":[2.112606E-05,0.0295337439,2.11364717E-10],"rotation":[0.1377825,0,0,0.990462542]},{"name":"mixamorig:LeftHandIndex1","children":[14],"translation":[-0.0348351076,0.1295756,-0.0007763659],"rotation":[0.0509966053,-0.00185872859,-0.03637651,0.9980344]},{"name":"mixamorig:LeftHandMiddle4","translation":[-0.000126423678,0.019924527,-7.83646037E-10]},{"name":"mixamorig:LeftHandMiddle3","children":[16],"translation":[-0.000115736839,0.0247097518,-1.93033745E-09],"rotation":[-0.0210317187,-2.189053E-19,1.04060388E-17,0.9997788]},{"name":"mixamorig:LeftHandMiddle2","children":[17],"translation":[0.000242159629,0.0262641385,-1.52124632E-10],"rotation":[0.211409464,2.93389569E-18,1.35641168E-17,0.9773976]},{"name":"mixamorig:LeftHandMiddle1","children":[18],"translation":[-0.009514446,0.1487466,-0.000917276251],"rotation":[0.07398727,0.000746350852,0.0100594163,0.9972082]},{"name":"mixamorig:LeftHandPinky4","translation":[-0.000132651112,0.01779389,-4.64251658E-11]},{"name":"mixamorig:LeftHandPinky3","children":[20],"translation":[-1.118117E-05,0.0199697372,-2.511868E-11],"rotation":[0.132963032,0,0,0.991121]},{"name":"mixamorig:LeftHandPinky2","children":[21],"translation":[0.000143832731,0.0246934835,1.110758E-10],"rotation":[0.1201835,2.9222276E-17,1.04414355E-17,0.9927517]},{"name":"mixamorig:LeftHandPinky1","children":[22],"translation":[0.032420557,0.125093386,0.000313623081],"rotation":[0.0582895465,-0.000315640355,-0.005405851,0.998285055]},{"name":"mixamorig:LeftHandRing4","translation":[-0.000108781685,0.023704363,4.01774065E-11]},{"name":"mixamorig:LeftHandRing3","children":[24],"translation":[-4.683687E-05,0.0264021289,1.89839353E-10],"rotation":[0.07606077,-2.76751737E-17,2.11111051E-18,0.9971032]},{"name":"mixamorig:LeftHandRing2","children":[25],"translation":[0.000155618283,0.0282686129,4.06856042E-11],"rotation":[0.198102266,0,0,0.980181336]},{"name":"mixamorig:LeftHandRing1","children":[26],"translation":[0.0119289877,0.1310878,-0.003007904],"rotation":[0.0148848845,-0.000236555512,-0.0158882551,0.999762952]},{"name":"mixamorig:LeftHandThumb4","translation":[0.00400057,0.0296850484,3.4512368E-10]},{"name":"mixamorig:LeftHandThumb3","children":[28],"translation":[0.00214746757,0.0358606577,5.43718348E-10],"rotation":[-0.0243866462,0,0,0.999702632]},{"name":"mixamorig:LeftHandThumb2","children":[29],"translation":[-0.00614803238,0.0437847637,8.43511649E-10],"rotation":[0.0152288191,0,0,0.999884069]},{"name":"mixamorig:LeftHandThumb1","children":[30],"translation":[-0.0225280225,0.0479753762,0.0156647135],"rotation":[0.14307259,0.0211480781,0.144687533,0.978850663]},{"name":"mixamorig:LeftHand","children":[15,19,23,27,31],"translation":[1.73637826E-09,0.2775658,-5.847191E-10],"rotation":[0.0994407,0.0560146756,-0.00272723124,0.9934619]},{"name":"mixamorig:LeftForeArm","children":[32],"translation":[-7.39821371E-10,0.256719351,2.15527221E-10],"rotation":[0.03476054,0.005183067,0.147386134,0.988454461]},{"name":"mixamorig:LeftArm","children":[33],"translation":[2.41358267E-10,0.123448595,1.989892E-09],"rotation":[0.3346057,0.105133973,-0.03759502,0.9357203]},{"name":"mixamorig:LeftShoulder","children":[34],"translation":[0.0583730675,0.110332556,-0.00236874656],"rotation":[0.580898941,0.3928448,-0.6053399,0.376554161]},{"name":"mixamorig:HeadTop_End","translation":[0,0.203453064,0.03929258]},{"name":"mixamorig:Head","children":[36],"translation":[0,0.114241332,0.0220632553]},{"name":"mixamorig:Neck","children":[37],"translation":[0,0.1356461,-2.43712748E-08],"rotation":[0.0522737876,0,0,0.9986328]},{"name":"mixamorig:RightHandIndex4","translation":[-2.30618134E-05,0.01878922,-2.214146E-10]},{"name":"mixamorig:RightHandIndex3","children":[39],"translation":[9.697628E-05,0.0216407087,6.61288635E-10],"rotation":[-0.08441813,-2.73636177E-17,-5.80013669E-18,0.996430457]},{"name":"mixamorig:RightHandIndex2","children":[40],"translation":[-7.39141542E-05,0.0241309442,-5.95342439E-12],"rotation":[0.113393478,-2.79699676E-17,-2.99768238E-19,0.9935502]},{"name":"mixamorig:RightHandIndex1","children":[41],"translation":[0.0349514075,0.149511352,-0.00126164733],"rotation":[0.135081977,0.005308461,0.0389072932,0.990056038]},{"name":"mixamorig:RightHandMiddle4","translation":[0.000395674957,0.02750798,-6.61812272E-10]},{"name":"mixamorig:RightHandMiddle3","children":[43],"translation":[-2.1365624E-05,0.0311213471,5.509091E-10],"rotation":[0.161471933,-2.68311285E-17,7.905665E-18,0.9868773]},{"name":"mixamorig:RightHandMiddle2","children":[44],"translation":[-0.000374309049,0.03250558,3.10867415E-10],"rotation":[0.116148666,0,0,0.993231833]},{"name":"mixamorig:RightHandMiddle1","children":[45],"translation":[0.00973074,0.128650263,-0.00280319783],"rotation":[0.06088884,0.00115101237,0.01886485,0.997965634]},{"name":"mixamorig:RightHandPinky4","translation":[0.000167565187,0.018634541,-1.6967916E-10]},{"name":"mixamorig:RightHandPinky3","children":[47],"translation":[6.6935856E-05,0.0210769381,1.64785519E-10],"rotation":[0.0552725121,0,0,0.9984713]},{"name":"mixamorig:RightHandPinky2","children":[48],"translation":[-0.000234501131,0.0243283845,1.68322384E-10],"rotation":[0.122738495,0,0,0.9924391]},{"name":"mixamorig:RightHandPinky1","children":[49],"translation":[-0.03223262,0.122872084,0.00105315307],"rotation":[0.0433695056,0.0006469641,0.0149014918,0.99894774]},{"name":"mixamorig:RightHandRing4","translation":[5.109436E-05,0.0222102441,-1.48260917E-10]},{"name":"mixamorig:RightHandRing3","children":[51],"translation":[0.000221518145,0.024908606,4.8072013E-10],"rotation":[-0.07375527,-2.75840233E-17,-3.344619E-18,0.9972764]},{"name":"mixamorig:RightHandRing2","children":[52],"translation":[-0.0002726126,0.0271403827,-2.65004019E-10],"rotation":[0.209566742,-1.45416139E-18,-6.78481125E-18,0.977794349]},{"name":"mixamorig:RightHandRing1","children":[53],"translation":[-0.0124495383,0.134231761,-0.00253696833],"rotation":[0.0193871111,0.000450364838,0.0232190974,0.9995423]},{"name":"mixamorig:RightHandThumb4","translation":[-0.005929388,0.02717112,-3.9443554E-10]},{"name":"mixamorig:RightHandThumb3","children":[55],"translation":[-0.0006140491,0.0345631279,4.370768E-10],"rotation":[-0.124090053,3.09852461E-17,-2.40968631E-17,0.992271]},{"name":"mixamorig:RightHandThumb2","children":[56],"translation":[0.006543439,0.04526587,3.560249E-10],"rotation":[0.0301498063,8.36825228E-19,2.77429578E-17,0.9995454]},{"name":"mixamorig:RightHandThumb1","children":[57],"translation":[0.0225085262,0.050309632,0.0151909888],"rotation":[0.134238258,-0.0183517039,-0.13420105,0.9816483]},{"name":"mixamorig:RightHand","children":[42,46,50,54,58],"translation":[-1.224969E-09,0.27744025,3.35966432E-09],"rotation":[0.0991646,-0.0777774453,-0.00172486145,0.992025256]},{"name":"mixamorig:RightForeArm","children":[59],"translation":[-9.04982533E-10,0.25659582,-5.2873883E-09],"rotation":[0.0385403335,-0.00552497339,-0.141797379,0.9891298]},{"name":"mixamorig:RightArm","children":[60],"translation":[-2.17192569E-10,0.123448595,1.992651E-09],"rotation":[0.334241122,-0.0961361155,0.0342951454,0.9369443]},{"name":"mixamorig:RightShoulder","children":[61],"translation":[-0.0583730675,0.1103925,-0.00293976371],"rotation":[-0.577680469,0.39509964,-0.608012855,-0.374835879]},{"name":"mixamorig:Spine2","children":[35,38,62],"translation":[0,0.120574564,1.45804771E-10]},{"name":"mixamorig:Spine1","children":[63],"translation":[0,0.105502576,-3.29351157E-10]},{"name":"mixamorig:Spine","children":[64],"translation":[0,0.0899366,-0.009441406],"rotation":[-0.05227384,0,0,0.9986328]},{"name":"mixamorig:Hips","children":[6,11,65],"translation":[0,0.9865612,-0.0156993922]},{"name":"Realistic_White_Male_Low_Poly.001","mesh":2,"rotation":[8.14603354E-08,0,0,1],"scale":[100,100,100]},{"name":"Realistic_White_Male_Low_Poly.002","mesh":3,"rotation":[8.14603354E-08,0,0,1],"scale":[100,100,100]},{"name":"Realistic_White_Male_Low_Poly.003","mesh":4,"rotation":[8.14603354E-08,0,0,1],"scale":[100,100,100]},{"name":"Realistic_White_Male_Low_Poly.004","mesh":5,"rotation":[8.14603354E-08,0,0,1],"scale":[100,100,100]},{"name":"Realistic_White_Male_Low_Poly.005","mesh":6,"rotation":[8.14603354E-08,0,0,1],"scale":[100,100,100]},{"name":"Realistic_White_Male_Low_Poly.008","mesh":7,"rotation":[8.14603354E-08,0,0,1],"scale":[100,100,100]},{"name":"Realistic_White_Male_Low_Poly.028","mesh":8,"rotation":[8.14603354E-08,0,0,1],"scale":[100,100,100]},{"name":"Sphere.001_Sphere.011","mesh":9,"rotation":[8.14603354E-08,0,0,1],"scale":[100,100,100]},{"name":"Sphere.002_Sphere.005","mesh":10,"rotation":[8.14603354E-08,0,0,1],"scale":[100,100,100]},{"name":"Geebs Dancing","children":[0,1,66,67,68,69,70,71,72,73,74,75],"translation":[-14.23,0.04,104.25],"rotation":[0,-0.9930839,0,-0.117407292]}],"buffers":[{"uri":"Geebs Dancing.bin","byteLength":10047444}],"bufferViews":[{"buffer":0,"byteLength":8448},{"buffer":0,"byteLength":93560,"byteOffset":8448,"byteStride":40},{"buffer":0,"byteLength":18712,"byteOffset":102008,"byteStride":8},{"buffer":0,"byteLength":190464,"byteOffset":120720},{"buffer":0,"byteLength":2309920,"byteOffset":311184,"byteStride":40},{"buffer":0,"byteLength":461984,"byteOffset":2621104,"byteStride":8},{"buffer":0,"byteLength":672,"byteOffset":3083088},{"buffer":0,"byteLength":3280,"byteOffset":3083760,"byteStride":40},{"buffer":0,"byteLength":656,"byteOffset":3087040,"byteStride":8},{"buffer":0,"byteLength":170568,"byteOffset":3087696},{"buffer":0,"byteLength":643440,"byteOffset":3258264,"byteStride":40},{"buffer":0,"byteLength":128688,"byteOffset":3901704,"byteStride":8},{"buffer":0,"byteLength":672,"byteOffset":4030392},{"buffer":0,"byteLength":3280,"byteOffset":4031064,"byteStride":40},{"buffer":0,"byteLength":656,"byteOffset":4034344,"byteStride":8},{"buffer":0,"byteLength":1632,"byteOffset":4035000},{"buffer":0,"byteLength":6640,"byteOffset":4036632,"byteStride":40},{"buffer":0,"byteLength":1328,"byteOffset":4043272,"byteStride":8},{"buffer":0,"byteLength":6804,"byteOffset":4044600},{"buffer":0,"byteLength":35560,"byteOffset":4051404,"byteStride":40},{"buffer":0,"byteLength":7112,"byteOffset":4086964,"byteStride":8},{"buffer":0,"byteLength":2376,"byteOffset":4094076},{"buffer":0,"byteLength":12360,"byteOffset":4096452,"byteStride":40},{"buffer":0,"byteLength":2472,"byteOffset":4108812,"byteStride":8},{"buffer":0,"byteLength":46080,"byteOffset":4111284},{"buffer":0,"byteLength":186280,"byteOffset":4157364,"byteStride":40},{"buffer":0,"byteLength":37256,"byteOffset":4343644,"byteStride":8},{"buffer":0,"byteLength":189600,"byteOffset":4380900},{"buffer":0,"byteLength":2201800,"byteOffset":4570500,"byteStride":40},{"buffer":0,"byteLength":440360,"byteOffset":6772300,"byteStride":8},{"buffer":0,"byteLength":189600,"byteOffset":7212660},{"buffer":0,"byteLength":2204320,"byteOffset":7402260,"byteStride":40},{"buffer":0,"byteLength":440864,"byteOffset":9606580,"byteStride":8}],"accessors":[{"bufferView":1,"componentType":5126,"count":2339,"type":"VEC3","max":[0.000145279992,0.0160098188,0.00246573985],"min":[-0.000145279992,0.0151684694,0.00225699]},{"bufferView":1,"componentType":5126,"count":2339,"type":"VEC3","byteOffset":12},{"bufferView":1,"componentType":5126,"count":2339,"type":"VEC4","byteOffset":24},{"bufferView":2,"componentType":5126,"count":2339,"type":"VEC2"},{"bufferView":0,"componentType":5123,"count":4224,"type":"SCALAR"},{"bufferView":4,"componentType":5126,"count":57748,"type":"VEC3","max":[0.00053996,0.0169595815,0.00113342],"min":[-0.00053996,0.01660854,0.000786019955]},{"bufferView":4,"componentType":5126,"count":57748,"type":"VEC3","byteOffset":12},{"bufferView":4,"componentType":5126,"count":57748,"type":"VEC4","byteOffset":24},{"bufferView":5,"componentType":5126,"count":57748,"type":"VEC2"},{"bufferView":3,"componentType":5123,"count":95232,"type":"SCALAR"},{"bufferView":7,"componentType":5126,"count":82,"type":"VEC3","max":[0.00294886,0.01705465,3.60400882E-05],"min":[0.0006599999,0.0125435982,-0.00283100014]},{"bufferView":7,"componentType":5126,"count":82,"type":"VEC3","byteOffset":12},{"bufferView":7,"componentType":5126,"count":82,"type":"VEC4","byteOffset":24},{"bufferView":8,"componentType":5126,"count":82,"type":"VEC2"},{"bufferView":6,"componentType":5123,"count":336,"type":"SCALAR"},{"bufferView":10,"componentType":5126,"count":16086,"type":"VEC3","max":[0.00428106962,0.01755571,0.00261183],"min":[-0.00428106962,-2.55592167E-05,-0.00156767992]},{"bufferView":10,"componentType":5126,"count":16086,"type":"VEC3","byteOffset":12},{"bufferView":10,"componentType":5126,"count":16086,"type":"VEC4","byteOffset":24},{"bufferView":11,"componentType":5126,"count":16086,"type":"VEC2"},{"bufferView":9,"componentType":5123,"count":85284,"type":"SCALAR"},{"bufferView":13,"componentType":5126,"count":82,"type":"VEC3","max":[-0.0006599999,0.01705465,3.60400882E-05],"min":[-0.00294886,0.0125435982,-0.00283100014]},{"bufferView":13,"componentType":5126,"count":82,"type":"VEC3","byteOffset":12},{"bufferView":13,"componentType":5126,"count":82,"type":"VEC4","byteOffset":24},{"bufferView":14,"componentType":5126,"count":82,"type":"VEC2"},{"bufferView":12,"componentType":5123,"count":336,"type":"SCALAR"},{"bufferView":16,"componentType":5126,"count":166,"type":"VEC3","max":[0.00024645,0.01633488,0.00306955981],"min":[-0.00024645,0.0154401883,0.00247981981]},{"bufferView":16,"componentType":5126,"count":166,"type":"VEC3","byteOffset":12},{"bufferView":16,"componentType":5126,"count":166,"type":"VEC4","byteOffset":24},{"bufferView":17,"componentType":5126,"count":166,"type":"VEC2"},{"bufferView":15,"componentType":5123,"count":816,"type":"SCALAR"},{"bufferView":19,"componentType":5126,"count":889,"type":"VEC3","max":[0.00195508986,0.0001895,0.00156841],"min":[-0.00195508986,5.89992851E-07,-0.000917150057]},{"bufferView":19,"componentType":5126,"count":889,"type":"VEC3","byteOffset":12},{"bufferView":19,"componentType":5126,"count":889,"type":"VEC4","byteOffset":24},{"bufferView":20,"componentType":5126,"count":889,"type":"VEC2"},{"bufferView":18,"componentType":5123,"count":3402,"type":"SCALAR"},{"bufferView":22,"componentType":5126,"count":309,"type":"VEC3","max":[0.00188366987,0.000246199983,0.00200653],"min":[-0.00188366987,-2.55600025E-05,0.00125856]},{"bufferView":22,"componentType":5126,"count":309,"type":"VEC3","byteOffset":12},{"bufferView":22,"componentType":5126,"count":309,"type":"VEC4","byteOffset":24},{"bufferView":23,"componentType":5126,"count":309,"type":"VEC2"},{"bufferView":21,"componentType":5123,"count":1188,"type":"SCALAR"},{"bufferView":25,"componentType":5126,"count":4657,"type":"VEC3","max":[0.00368169,0.0102359792,-0.00100321008],"min":[-0.000223289942,0.0010561496,-0.00361482]},{"bufferView":25,"componentType":5126,"count":4657,"type":"VEC3","byteOffset":12},{"bufferView":25,"componentType":5126,"count":4657,"type":"VEC4","byteOffset":24},{"bufferView":26,"componentType":5126,"count":4657,"type":"VEC2"},{"bufferView":24,"componentType":5123,"count":23040,"type":"SCALAR"},{"bufferView":28,"componentType":5126,"count":55045,"type":"VEC3","max":[0.000508299971,0.01688952,0.00114481],"min":[0.00029507,0.0166775882,0.000938790035]},{"bufferView":28,"componentType":5126,"count":55045,"type":"VEC3","byteOffset":12},{"bufferView":28,"componentType":5126,"count":55045,"type":"VEC4","byteOffset":24},{"bufferView":29,"componentType":5126,"count":55045,"type":"VEC2"},{"bufferView":27,"componentType":5123,"count":94800,"type":"SCALAR"},{"bufferView":31,"componentType":5126,"count":55108,"type":"VEC3","max":[-0.00029092998,0.01688952,0.00114904],"min":[-0.00050419,0.0166775882,0.0009451501]},{"bufferView":31,"componentType":5126,"count":55108,"type":"VEC3","byteOffset":12},{"bufferView":31,"componentType":5126,"count":55108,"type":"VEC4","byteOffset":24},{"bufferView":32,"componentType":5126,"count":55108,"type":"VEC2"},{"bufferView":30,"componentType":5123,"count":94800,"type":"SCALAR"}],"images":[{"name":"Dog print no corners.jpg","uri":"Dog print no corners.jpg","mimeType":"image/jpeg"}],"materials":[{"name":"Material.006","pbrMetallicRoughness":{"baseColorFactor":[0.8,0.8,0.8,1],"metallicFactor":0,"roughnessFactor":0.5}},{"name":"Material.001","pbrMetallicRoughness":{"baseColorFactor":[0,0,0,1],"metallicFactor":0,"roughnessFactor":0.5}},{"name":"Material","pbrMetallicRoughness":{"metallicFactor":0,"roughnessFactor":0.5,"baseColorTexture":{"index":0}}},{"name":"Material.013","pbrMetallicRoughness":{"baseColorFactor":[0.0122166527,0.0122166527,0.0122166527,1],"metallicFactor":0,"roughnessFactor":0.09558821}},{"name":"Material.009","pbrMetallicRoughness":{"baseColorFactor":[0.0122166527,0.0122166527,0.0122166527,1],"metallicFactor":0,"roughnessFactor":0.09558821}}],"meshes":[{"name":"Cube.001","primitives":[{"attributes":{"POSITION":0,"NORMAL":1,"TANGENT":2,"TEXCOORD_0":3},"indices":4,"material":0}]},{"name":"Eyes.001_Sphere.001","primitives":[{"attributes":{"POSITION":5,"NORMAL":6,"TANGENT":7,"TEXCOORD_0":8},"indices":9,"material":0}]},{"name":"Realistic_White_Male_Low_Poly.001","primitives":[{"attributes":{"POSITION":10,"NORMAL":11,"TANGENT":12,"TEXCOORD_0":13},"indices":14,"material":1}]},{"name":"Realistic_White_Male_Low_Poly.002","primitives":[{"attributes":{"POSITION":15,"NORMAL":16,"TANGENT":17,"TEXCOORD_0":18},"indices":19,"material":2}]},{"name":"Realistic_White_Male_Low_Poly.003","primitives":[{"attributes":{"POSITION":20,"NORMAL":21,"TANGENT":22,"TEXCOORD_0":23},"indices":24,"material":1}]},{"name":"Realistic_White_Male_Low_Poly.004","primitives":[{"attributes":{"POSITION":25,"NORMAL":26,"TANGENT":27,"TEXCOORD_0":28},"indices":29,"material":3}]},{"name":"Realistic_White_Male_Low_Poly.005","primitives":[{"attributes":{"POSITION":30,"NORMAL":31,"TANGENT":32,"TEXCOORD_0":33},"indices":34,"material":1}]},{"name":"Realistic_White_Male_Low_Poly.008","primitives":[{"attributes":{"POSITION":35,"NORMAL":36,"TANGENT":37,"TEXCOORD_0":38},"indices":39,"material":1}]},{"name":"Realistic_White_Male_Low_Poly.028","primitives":[{"attributes":{"POSITION":40,"NORMAL":41,"TANGENT":42,"TEXCOORD_0":43},"indices":44,"material":1}]},{"name":"Sphere.001_Sphere.011","primitives":[{"attributes":{"POSITION":45,"NORMAL":46,"TANGENT":47,"TEXCOORD_0":48},"indices":49,"material":4}]},{"name":"Sphere.002_Sphere.005","primitives":[{"attributes":{"POSITION":50,"NORMAL":51,"TANGENT":52,"TEXCOORD_0":53},"indices":54,"material":4}]}],"scene":0,"scenes":[{"name":"Geebs Dancing","nodes":[76]}],"textures":[{"source":0}]}