{
  "accessors": [
    {
      "bufferView": 2,
      "componentType": 5126,
      "count": 1630,
      "max": [
        0.14824000000953674,
        0.8861520290374756,
        0.14718900620937347
      ],
      "min": [
        -0.14539200067520142,
        -1.0,
        -0.14644299447536469
      ],
      "type": "VEC3"
    },
    {
      "bufferView": 2,
      "byteOffset": 19560,
      "componentType": 5126,
      "count": 1630,
      "max": [
        1.0,
        1.0,
        1.0
      ],
      "min": [
        -1.0,
        -1.0,
        -1.0
      ],
      "type": "VEC3"
    },
    {
      "bufferView": 3,
      "componentType": 5126,
      "count": 1630,
      "max": [
        1.0,
        1.0,
        1.0,
        1.0
      ],
      "min": [
        -0.8701580166816711,
        -1.0,
        -1.0,
        1.0
      ],
      "type": "VEC4"
    },
    {
      "bufferView": 1,
      "componentType": 5126,
      "count": 1630,
      "max": [
        0.926518976688385,
        0.7322750091552734
      ],
      "min": [
        0.0018493400420993567,
        0.0019920100457966328
      ],
      "type": "VEC2"
    },
    {
      "bufferView": 0,
      "componentType": 5125,
      "count": 5868,
      "type": "SCALAR"
    },
    {
      "bufferView": 2,
      "byteOffset": 39120,
      "componentType": 5126,
      "count": 4082,
      "max": [
        0.24489399790763855,
        1.0,
        0.24531400203704834
      ],
      "min": [
        -0.24489399790763855,
        0.5714200139045715,
        -0.24531400203704834
      ],
      "type": "VEC3"
    },
    {
      "bufferView": 2,
      "byteOffset": 88104,
      "componentType": 5126,
      "count": 4082,
      "max": [
        0.9988760948181152,
        0.9999926686286926,
        0.9988763332366943
      ],
      "min": [
        -0.9998235106468201,
        -0.9998234510421753,
        -0.9988763332366943
      ],
      "type": "VEC3"
    },
    {
      "bufferView": 3,
      "byteOffset": 26080,
      "componentType": 5126,
      "count": 4082,
      "max": [
        1.0,
        0.9999759793281555,
        1.0,
        1.0
      ],
      "min": [
        -0.9806860089302063,
        -0.9999759793281555,
        -1.0,
        1.0
      ],
      "type": "VEC4"
    },
    {
      "bufferView": 1,
      "byteOffset": 13040,
      "componentType": 5126,
      "count": 4082,
      "max": [
        0.926518976688385,
        0.9980080127716064
      ],
      "min": [
        0.0018493400420993567,
        0.0019920500926673412
      ],
      "type": "VEC2"
    },
    {
      "bufferView": 0,
      "byteOffset": 23472,
      "componentType": 5125,
      "count": 14616,
      "type": "SCALAR"
    },
    {
      "bufferView": 2,
      "byteOffset": 137088,
      "componentType": 5126,
      "count": 456,
      "max": [
        0.024343399330973625,
        -0.620989978313446,
        0.024106500670313835
      ],
      "min": [
        -0.021696699783205986,
        -0.9477390050888062,
        -0.02336139976978302
      ],
      "type": "VEC3"
    },
    {
      "bufferView": 2,
      "byteOffset": 142560,
      "componentType": 5126,
      "count": 456,
      "max": [
        1.0,
        0.7114732265472412,
        1.0
      ],
      "min": [
        -1.0,
        -1.0,
        -1.0
      ],
      "type": "VEC3"
    },
    {
      "bufferView": 3,
      "byteOffset": 91392,
      "componentType": 5126,
      "count": 456,
      "max": [
        1.0,
        0.7027140259742737,
        1.0,
        1.0
      ],
      "min": [
        -0.8090180158615112,
        -0.7027130126953125,
        -1.0,
        1.0
      ],
      "type": "VEC4"
    },
    {
      "bufferView": 1,
      "byteOffset": 45696,
      "componentType": 5126,
      "count": 456,
      "max": [
        0.46839600801467896,
        0.4154289960861206
      ],
      "min": [
        0.10697200149297714,
        0.0019920100457966328
      ],
      "type": "VEC2"
    },
    {
      "bufferView": 0,
      "byteOffset": 81936,
      "componentType": 5125,
      "count": 1686,
      "type": "SCALAR"
    }
  ],
  "asset": {
    "extras": {
      "author": "knight_of_the_flame (https://sketchfab.com/knight_of_the_flame)",
      "license": "CC-BY-4.0 (http://creativecommons.org/licenses/by/4.0/)",
      "source": "https://sketchfab.com/3d-models/morning-star-2b43d467b98a4c8ab80ad76777b09366",
      "title": "Morning Star"
    },
    "generator": "Sketchfab-12.65.0",
    "version": "2.0"
  },
  "bufferViews": [
    {
      "buffer": 0,
      "byteLength": 88680,
      "name": "floatBufferViews",
      "target": 34963
    },
    {
      "buffer": 0,
      "byteLength": 49344,
      "byteOffset": 88680,
      "byteStride": 8,
      "name": "floatBufferViews",
      "target": 34962
    },
    {
      "buffer": 0,
      "byteLength": 148032,
      "byteOffset": 138024,
      "byteStride": 12,
      "name": "floatBufferViews",
      "target": 34962
    },
    {
      "buffer": 0,
      "byteLength": 98688,
      "byteOffset": 286056,
      "byteStride": 16,
      "name": "floatBufferViews",
      "target": 34962
    }
  ],
  "buffers": [
    {
      "byteLength": 384744,
      "uri": "scene.bin"
    }
  ],
  "images": [
    {
      "uri": "textures/Grip_Cloth_baseColor.jpeg"
    },
    {
      "uri": "textures/Grip_Cloth_metallicRoughness.png"
    },
    {
      "uri": "textures/Grip_Cloth_normal.png"
    },
    {
      "uri": "textures/Spikes_material_baseColor.jpeg"
    },
    {
      "uri": "textures/Spikes_material_metallicRoughness.png"
    },
    {
      "uri": "textures/Spikes_material_emissive.jpeg"
    },
    {
      "uri": "textures/Spikes_material_normal.png"
    },
    {
      "uri": "textures/blinn2_baseColor.jpeg"
    },
    {
      "uri": "textures/blinn2_metallicRoughness.png"
    },
    {
      "uri": "textures/blinn2_emissive.jpeg"
    },
    {
      "uri": "textures/blinn2_normal.png"
    }
  ],
  "materials": [
    {
      "doubleSided": true,
      "name": "Grip_Cloth",
      "normalTexture": {
        "index": 2
      },
      "pbrMetallicRoughness": {
        "baseColorTexture": {
          "index": 0
        },
        "metallicRoughnessTexture": {
          "index": 1
        }
      }
    },
    {
      "doubleSided": true,
      "emissiveFactor": [
        1.0,
        1.0,
        1.0
      ],
      "emissiveTexture": {
        "index": 5
      },
      "name": "Spikes_material",
      "normalTexture": {
        "index": 6
      },
      "pbrMetallicRoughness": {
        "baseColorTexture": {
          "index": 3
        },
        "metallicRoughnessTexture": {
          "index": 4
        }
      }
    },
    {
      "doubleSided": true,
      "emissiveFactor": [
        1.0,
        1.0,
        1.0
      ],
      "emissiveTexture": {
        "index": 9
      },
      "name": "blinn2",
      "normalTexture": {
        "index": 10
      },
      "pbrMetallicRoughness": {
        "baseColorTexture": {
          "index": 7
        },
        "metallicRoughnessTexture": {
          "index": 8
        }
      }
    }
  ],
  "meshes": [
    {
      "name": "defaultMaterial",
      "primitives": [
        {
          "attributes": {
            "NORMAL": 1,
            "POSITION": 0,
            "TANGENT": 2,
            "TEXCOORD_0": 3
          },
          "indices": 4,
          "material": 2,
          "mode": 4
        }
      ]
    },
    {
      "name": "defaultMaterial",
      "primitives": [
        {
          "attributes": {
            "NORMAL": 6,
            "POSITION": 5,
            "TANGENT": 7,
            "TEXCOORD_0": 8
          },
          "indices": 9,
          "material": 1,
          "mode": 4
        }
      ]
    },
    {
      "name": "defaultMaterial",
      "primitives": [
        {
          "attributes": {
            "NORMAL": 11,
            "POSITION": 10,
            "TANGENT": 12,
            "TEXCOORD_0": 13
          },
          "indices": 14,
          "material": 0,
          "mode": 4
        }
      ]
    }
  ],
  "nodes": [
    {
      "children": [
        1
      ],
      "matrix": [
        1.0,
        0.0,
        0.0,
        0.0,
        0.0,
        2.220446049250313e-16,
        -1.0,
        0.0,
        0.0,
        1.0,
        2.220446049250313e-16,
        0.0,
        0.0,
        0.0,
        0.0,
        1.0
      ],
      "name": "Sketchfab_model"
    },
    {
      "children": [
        2,
        4,
        6
      ],
      "matrix": [
        1.0,
        0.0,
        0.0,
        0.0,
        0.0,
        -4.371139006309477e-08,
        0.999999999999999,
        0.0,
        0.0,
        -0.999999999999999,
        -4.371139006309477e-08,
        0.0,
        0.0,
        0.0,
        0.0,
        1.0
      ],
      "name": "Collada visual scene group"
    },
    {
      "children": [
        3
      ],
      "name": "Metals"
    },
    {
      "mesh": 0,
      "name": "defaultMaterial"
    },
    {
      "children": [
        5
      ],
      "name": "Spikes"
    },
    {
      "mesh": 1,
      "name": "defaultMaterial"
    },
    {
      "children": [
        7
      ],
      "name": "Grip"
    },
    {
      "mesh": 2,
      "name": "defaultMaterial"
    }
  ],
  "samplers": [
    {
      "magFilter": 9729,
      "minFilter": 9987,
      "wrapS": 10497,
      "wrapT": 10497
    }
  ],
  "scene": 0,
  "scenes": [
    {
      "name": "Sketchfab_Scene",
      "nodes": [
        0
      ]
    }
  ],
  "textures": [
    {
      "sampler": 0,
      "source": 0
    },
    {
      "sampler": 0,
      "source": 1
    },
    {
      "sampler": 0,
      "source": 2
    },
    {
      "sampler": 0,
      "source": 3
    },
    {
      "sampler": 0,
      "source": 4
    },
    {
      "sampler": 0,
      "source": 5
    },
    {
      "sampler": 0,
      "source": 6
    },
    {
      "sampler": 0,
      "source": 7
    },
    {
      "sampler": 0,
      "source": 8
    },
    {
      "sampler": 0,
      "source": 9
    },
    {
      "sampler": 0,
      "source": 10
    }
  ]
}
